# xmcd CD database file
#
# Track frame offsets:
#	150
#	52818
#	65830
#	148834
#	251191
#
# Disc length: 3476 seconds
#
# Revision: 0
# Processed by: cddbd v1.4PL0 Copyright (c) Steve Scherf et al.
# Submitted via: CDex 1.51
#
DISCID=4c0d9205
DTITLE=The Slip - The Paradise Boston, MA 4/20/02 (Disk 2)
DYEAR=2002
DGENRE=Jazz
TTITLE0=Sometimes True to Nothing
TTITLE1=Jam ->
TTITLE2=Jam
TTITLE3=Johnny's Tune
TTITLE4=Encore
EXTD=YEAR: 2002
EXTT0=
EXTT1=
EXTT2=
EXTT3=
EXTT4=
PLAYORDER=
